<svg width="61" height="60" viewBox="0 0 61 60" fill="none" xmlns="http://www.w3.org/2000/svg">
<rect x="0.5" width="60" height="60" rx="30" fill="#233A2F"/>
<path d="M41.5 28.32V35.8C41.5 43.0901 35.7436 49 28.6429 49H24.3571C17.2563 49 11.5 43.0901 11.5 35.8V28.32C11.5 27.5909 12.0756 27 12.7857 27H40.2143C40.9244 27 41.5 27.5909 41.5 28.32Z" stroke="#CBCBCB" stroke-width="3" stroke-linecap="round" stroke-linejoin="round"/>
<path d="M31.5 23C31.5 20.8182 32.9286 18.6364 35.7858 18.6364C38.9416 18.6364 41.5 15.8454 41.5 12.4026V11" stroke="#CBCBCB" stroke-width="3" stroke-linecap="round" stroke-linejoin="round"/>
<path d="M22.5 23V21.9167C22.5 18.3268 25.4549 15.4167 29.1 15.4167C31.5301 15.4167 33.5 13.4766 33.5 11.0833V10" stroke="#CBCBCB" stroke-width="3" stroke-linecap="round" stroke-linejoin="round"/>
<path d="M39.5 27H45C48.0375 27 50.5 29.4625 50.5 32.5C50.5 35.5375 48.0375 38 45 38H41.7" stroke="#CBCBCB" stroke-width="3" stroke-linecap="round" stroke-linejoin="round"/>
</svg>
