<svg width="60" height="60" viewBox="0 0 60 60" fill="none" xmlns="http://www.w3.org/2000/svg">
<path d="M29.6203 46.95H31.0953C32.1453 46.95 33.134 46.46 33.769 45.6238L43.1253 33.315L52.4815 45.6238C53.1165 46.4587 54.1053 46.95 55.1553 46.95H56.6303L44.694 31.25L56.0953 16.25H54.6203C53.5703 16.25 52.5815 16.74 51.9465 17.5762L43.124 29.1838L34.3003 17.575C33.6653 16.74 32.6765 16.25 31.6265 16.25H30.1515L41.5528 31.25L29.6203 46.95Z" fill="#E7EAE6"/>
<path d="M29.999 32.5V28.75C29.999 20.4062 22.5678 13.7987 13.9628 15.185C7.26402 16.2637 2.49902 22.3212 2.49902 29.105V30V32.5V32.6775C2.49902 40.8687 8.47027 47.41 16.084 47.5C22.449 47.575 27.8203 43.32 29.4678 37.5012H28.1828C27.4078 37.5012 26.7053 37.945 26.369 38.6425C24.1953 43.1362 19.1328 45.97 13.584 44.695C8.46902 43.5187 4.99902 38.7262 4.99902 33.4787V32.5H29.999ZM4.99902 29.6375C4.99902 23.7525 8.50402 18.9412 13.654 17.79C20.9965 16.15 27.499 21.69 27.499 28.75V30H4.99902V29.6375Z" fill="#E7EAE6"/>
</svg>
