<svg width="60" height="60" viewBox="0 0 60 60" fill="none" xmlns="http://www.w3.org/2000/svg">
<path d="M22.199 2.40002C16.58 2.40002 11.999 6.98105 11.999 12.6C11.999 16.5604 14.3389 19.9115 17.6498 21.6C14.3389 23.2886 11.999 26.6397 11.999 30.6C11.999 34.5604 14.3389 37.9115 17.6498 39.6C14.3389 41.2886 11.999 44.6397 11.999 48.6C11.999 54.219 16.58 58.8 22.199 58.8C27.818 58.8 32.399 54.219 32.399 48.6V39.6V35.5875C34.0087 38.6421 37.1175 40.8 40.799 40.8C46.0867 40.8 50.399 36.4877 50.399 31.2C50.399 26.8539 47.4304 23.3144 43.4568 22.1391C47.4633 20.7621 50.399 17.0643 50.399 12.6C50.399 6.98105 45.818 2.40002 40.199 2.40002H31.199H22.199ZM22.199 4.80002H29.999V20.4H22.199C17.8772 20.4 14.399 16.9218 14.399 12.6C14.399 8.2782 17.8772 4.80002 22.199 4.80002ZM32.399 4.80002H40.199C44.5208 4.80002 47.999 8.2782 47.999 12.6C47.999 16.9218 44.5208 20.4 40.199 20.4H32.399V4.80002ZM22.199 22.8H29.999V38.4H22.199C17.8772 38.4 14.399 34.9218 14.399 30.6C14.399 26.2782 17.8772 22.8 22.199 22.8ZM32.399 22.8H36.4115C34.6896 23.7074 33.3064 25.0906 32.399 26.8125V22.8ZM40.799 24C44.7897 24 47.999 27.2094 47.999 31.2C47.999 35.1907 44.7897 38.4 40.799 38.4C36.8084 38.4 33.599 35.1907 33.599 31.2C33.599 27.2094 36.8084 24 40.799 24ZM22.199 40.8H29.999V48.6C29.999 52.9219 26.5208 56.4 22.199 56.4C17.8772 56.4 14.399 52.9219 14.399 48.6C14.399 44.2782 17.8772 40.8 22.199 40.8Z" fill="#E7EAE6"/>
</svg>
