<svg width="60" height="60" viewBox="0 0 60 60" fill="none" xmlns="http://www.w3.org/2000/svg">
<path d="M58.867 27.3279L32.671 1.13295C31.1631 -0.376024 28.7163 -0.376024 27.2063 1.13295L21.7672 6.57311L28.6673 13.4733C30.2709 12.9318 32.1099 13.2952 33.3877 14.5733C34.6733 15.8594 35.0336 17.7141 34.4781 19.3236L41.1288 25.9735C42.7382 25.4188 44.5938 25.7774 45.8793 27.0647C47.675 28.8598 47.675 31.7698 45.8793 33.5664C44.0824 35.3631 41.173 35.3631 39.3752 33.5664C38.0247 32.2146 37.6906 30.23 38.3754 28.5659L32.1724 22.3634V38.6852C32.6098 38.902 33.023 39.1907 33.3877 39.5544C35.1833 41.3499 35.1833 44.2596 33.3877 46.0577C31.5921 47.8526 28.6806 47.8526 26.8863 46.0577C25.0906 44.2596 25.0906 41.3499 26.8863 39.5544C27.3301 39.1111 27.844 38.7758 28.3924 38.5513V22.0785C27.844 21.854 27.3313 21.5215 26.8863 21.0751C25.5263 19.7156 25.199 17.7192 25.8966 16.0489L19.0942 9.24539L1.13151 27.2065C-0.37717 28.7167 -0.37717 31.1635 1.13151 32.6724L27.3288 58.8674C28.837 60.3761 31.283 60.3761 32.7934 58.8674L58.867 32.7938C60.3764 31.2846 60.3764 28.8366 58.867 27.3279Z" fill="#E7EAE6"/>
</svg>
