<svg width="61" height="61" viewBox="0 0 61 61" fill="none" xmlns="http://www.w3.org/2000/svg">
<rect x="0.5" y="0.5" width="60" height="60" rx="30" fill="#233A2F"/>
<path d="M11 33.8333C11 38.0674 14.5817 41.5 19 41.5C23.4183 41.5 27 38.0674 27 33.8333C27 29.5992 23.4183 26.1667 19 26.1667C14.5817 26.1667 11 29.5992 11 33.8333ZM11 33.8333V18.5" stroke="#CBCBCB" stroke-width="3" stroke-linecap="round" stroke-linejoin="round"/>
<path d="M50 33.8333C50 38.0674 46.4182 41.5 42 41.5C37.5818 41.5 34 38.0674 34 33.8333C34 29.5992 37.5818 26.1667 42 26.1667C46.4182 26.1667 50 29.5992 50 33.8333ZM50 33.8333V18.5" stroke="#CBCBCB" stroke-width="3" stroke-linecap="round" stroke-linejoin="round"/>
<path d="M34 33.5H27" stroke="#CBCBCB" stroke-width="2" stroke-linecap="round" stroke-linejoin="round"/>
</svg>
