<svg width="60" height="60" viewBox="0 0 60 60" fill="none" xmlns="http://www.w3.org/2000/svg">
<path d="M0 0L5.29412 53.6842L30 60L54.7059 53.6842C56.4706 35.79 58.2353 17.8942 60 0H0ZM3.8534 3.15789H56.1466L51.404 51.2449L30 56.7157L8.59605 51.2449L3.8534 3.15789ZM16.8543 12.6316L15.1585 31.5789H38.0825L37.3587 39.4737L30 40.4513L22.7309 39.4737L22.4104 36.3158H15.5997L16.2891 44.2105L29.9828 47.3684L43.6937 44.2105L45.4412 25.2632H23.0997L23.665 18.9474H38.4168L38.8235 22.1053H45.3516L44.1176 12.6316H16.8543Z" fill="#E7EAE6"/>
</svg>
