<svg width="60" height="60" viewBox="0 0 60 60" fill="none" xmlns="http://www.w3.org/2000/svg">
<path d="M0 0V60H60V0H0ZM5.45455 5.45455H54.5455V54.5455H5.45455V5.45455ZM41.5749 27.2727C37.6886 27.2727 35.1776 29.7604 35.1776 33.0522C35.1776 36.6277 37.2741 38.3367 40.435 39.6839L41.527 40.1527C43.5234 41.0336 44.7124 41.5477 44.7124 43.0504C44.7124 44.3186 43.5484 45.229 41.7347 45.229C39.5856 45.229 38.3635 44.0904 37.4308 42.5604L33.8565 44.6058C35.1247 47.1449 37.7668 49.0909 41.8359 49.0909C45.9814 49.0909 49.0909 46.9407 49.0909 43.0025C49.0909 39.3234 46.9918 37.6888 43.2582 36.1097L42.1715 35.641C40.2815 34.8119 39.4762 34.2678 39.4762 32.9723C39.4762 31.9087 40.2795 31.0813 41.5749 31.0813C42.8458 31.0813 43.6454 31.625 44.3981 32.9723L47.8232 30.7724C46.3722 28.2333 44.3731 27.2727 41.5749 27.2727ZM25.6214 27.5337V42.4325C25.6214 44.6089 24.6881 45.1758 23.2617 45.1758C21.759 45.1758 21.1122 44.1417 20.4386 42.9226L16.8643 45.0746C17.9007 47.2782 19.9437 49.0909 23.4428 49.0909C27.3292 49.0909 30 47.0159 30 42.4805V27.5337H25.6214Z" fill="#E7EAE6"/>
</svg>
