<svg width="100" height="auto" viewBox="0 0 228 153" fill="none" xmlns="http://www.w3.org/2000/svg">
<path d="M117.915 37.3107C114.159 15.6979 106.331 9.94433 104.334 5.87713C103.51 4.08543 102.781 2.22304 102.15 0.302734C102.045 2.22273 101.851 3.43233 100.6 4.88833C98.0877 7.80993 87.4184 19.1507 86.5205 43.7075C85.6839 66.6035 99.4248 80.7219 101.24 82.1811C102.636 83.0771 104.336 82.2003 105.165 81.3779C111.789 75.4483 120.839 59.6403 117.922 37.3107" fill="#E7EAE6"/>
<path d="M102.719 69.9891C102.373 75.6563 102.126 78.9491 101.248 82.1875C101.248 82.1875 101.824 87.5827 102.229 93.2979H103.662C104.003 89.2733 104.525 85.2783 105.224 81.3331C103.369 80.1427 102.79 74.9619 102.719 69.9891Z" fill="#E7EAE6"/>
<path d="M105.222 81.3363C103.348 80.2067 102.805 74.9171 102.722 69.9891C103.185 61.86 103.32 53.7048 103.126 45.5571C103.028 41.2819 103.173 5.96033 102.32 0.789134C102.904 2.54057 103.576 4.23927 104.334 5.87393C106.331 9.94433 114.161 15.6979 117.915 37.3107C120.839 59.6019 111.838 75.3683 105.222 81.3363Z" fill="#E7EAE6"/>
<path d="M223.928 135.721C223.126 135.721 222.341 135.412 221.673 134.832C221.005 134.251 220.484 133.427 220.174 132.461C219.864 131.495 219.781 130.431 219.933 129.404C220.086 128.376 220.468 127.43 221.031 126.685C221.595 125.939 222.315 125.428 223.101 125.215C223.886 125.002 224.703 125.097 225.447 125.487C226.192 125.878 226.831 126.547 227.285 127.41C227.739 128.273 227.987 129.292 227.998 130.339C228.013 131.045 227.918 131.747 227.719 132.404C227.521 133.061 227.223 133.658 226.842 134.161C226.462 134.664 226.008 135.061 225.508 135.329C225.007 135.597 224.47 135.731 223.928 135.721ZM223.928 125.584C223.195 125.577 222.477 125.855 221.865 126.382C221.253 126.908 220.774 127.66 220.489 128.541C220.205 129.423 220.128 130.395 220.267 131.334C220.406 132.273 220.756 133.137 221.272 133.817C221.788 134.496 222.448 134.96 223.166 135.151C223.885 135.341 224.631 135.249 225.309 134.887C225.988 134.524 226.568 133.907 226.977 133.113C227.387 132.319 227.606 131.385 227.608 130.429C227.618 129.793 227.529 129.161 227.348 128.57C227.167 127.98 226.897 127.443 226.554 126.991C226.211 126.539 225.802 126.182 225.351 125.94C224.9 125.698 224.416 125.577 223.928 125.584ZM224.91 133.769L223.86 130.816H223.013V133.769H222.398V127.049H223.916C225.047 127.049 225.518 127.689 225.518 128.928C225.518 129.913 225.162 130.528 224.5 130.717L225.584 133.76L224.91 133.769ZM223.038 130.121H223.928C224.65 130.121 224.925 129.801 224.925 128.944C224.925 128.086 224.662 127.795 223.85 127.795H223.038V130.121Z" fill="#E7EAE6"/>
<path d="M163.354 130.883C164.456 132.032 166.657 132.505 168.597 132.505C171.112 132.505 173.577 131.897 175.987 129.059C178.44 126.15 180.128 121.699 180.128 114.592C180.128 107.763 178.136 102.221 174.049 98.9758C171.742 97.0846 168.754 96.339 165.347 96.339C164.365 96.339 163.355 96.4062 162.78 96.7454C162.545 96.9877 162.379 97.3255 162.307 97.7054C162.204 98.9214 162.204 108.182 162.204 113.657C162.204 119.27 162.204 127.097 162.307 128.057C162.361 128.87 162.675 130.297 163.354 130.896M152.894 93.299C153.784 93.299 157.17 93.5006 158.745 93.5006C161.689 93.5006 163.723 93.299 169.225 93.299C173.837 93.299 177.718 94.9214 180.493 98.0286C183.849 101.817 185.645 107.088 185.645 113.51C185.645 122.637 182.456 127.91 179.249 130.883C176.06 133.993 171.912 135.75 166.002 135.75C162.857 135.75 157.457 135.616 152.95 135.549H152.857C152.646 135.008 153.242 132.899 153.61 132.845C154.837 132.665 155.161 132.601 155.725 132.297C156.677 131.789 156.9 131.155 157.006 128.925C157.163 124.733 157.111 119.731 157.111 114.051C157.111 109.997 157.163 102.086 157.06 99.5838C156.9 97.491 156.223 96.9502 154.852 96.5438C153.879 96.2743 152.896 96.0714 151.908 95.9358C151.805 95.5294 152.609 93.6958 152.872 93.299" fill="#E7EAE6"/>
<path d="M198.635 96.7294C198.427 96.7966 198.164 97.475 198.164 97.811C198.11 100.246 198.059 106.598 198.059 110.992C198.072 111.076 198.104 111.153 198.151 111.213C198.197 111.273 198.257 111.314 198.321 111.331C199.001 111.398 200.679 111.469 202.094 111.469C204.086 111.469 205.239 111.129 205.867 110.723C207.545 109.641 208.321 107.273 208.321 104.707C208.321 98.8254 205.176 96.595 200.512 96.595C199.881 96.5846 199.251 96.6295 198.625 96.7294M210.524 123.769C210.524 117.821 207.168 114.441 201.035 114.441C200.775 114.441 198.826 114.374 198.363 114.509C198.206 114.576 198.049 114.71 198.049 114.848C198.049 119.107 197.995 125.933 198.154 128.637C198.26 129.785 198.89 131.408 199.673 131.881C200.512 132.489 202.399 132.624 203.709 132.624C207.325 132.624 210.524 129.99 210.524 123.769ZM189.165 93.4174C189.639 93.4174 191.032 93.619 194.597 93.619C197.951 93.619 200.676 93.4846 203.919 93.4846C207.955 93.4846 213.509 95.379 213.509 103.219C213.509 107.059 211.414 110.182 208.689 111.67C208.532 111.737 208.532 111.872 208.689 111.939C212.567 113.219 215.972 116.333 215.972 122.281C215.972 128.096 213.195 131.747 209.16 134.045C206.706 135.465 203.657 135.936 200.573 135.936C198.216 135.936 191.896 135.616 188.383 135.667C188.015 135.465 188.719 133.299 189.033 132.963C189.838 132.931 190.636 132.767 191.41 132.477C192.666 132.073 192.816 131.545 192.973 129.11C193.079 127.014 193.079 119.51 193.079 114.169C193.079 106.867 193.133 101.936 193.079 99.5006C193.027 97.6094 192.502 96.9982 191.506 96.6622C190.721 96.4574 189.411 96.2558 188.363 96.0542C188.101 95.715 188.908 93.6862 189.168 93.4174" fill="#E7EAE6"/>
<path d="M1.18306 135.721C1.04807 135.289 0.993474 134.82 1.02364 134.355C1.01188 134.038 1.06699 133.722 1.18306 133.443C1.86094 133.315 2.53265 133.137 3.19478 132.909C4.12212 132.608 4.4704 131.949 4.52437 130.406C4.67647 126.761 4.68625 119.923 4.63228 115.117V114.976C4.63228 114.457 4.63246 113.753 4.1418 113.257C3.27942 112.552 2.34319 112.013 1.36226 111.657C0.923123 111.488 0.680316 111.187 0.692582 110.835C0.704848 110.483 0.981808 110.067 1.55342 109.92C3.072 109.718 7.05123 108.48 8.61397 107.539C8.77489 107.813 8.84971 108.156 8.82271 108.499C8.82271 108.71 8.79789 108.934 8.78072 109.165C8.73656 109.843 8.6877 110.614 8.6877 111.382C8.69731 111.475 8.72656 111.563 8.77242 111.636C8.81827 111.709 8.87889 111.763 8.94722 111.794C9.01556 111.824 9.08907 111.829 9.15938 111.807C9.22968 111.786 9.294 111.74 9.34517 111.673C12.321 108.63 14.9877 107.545 16.3542 107.545C18.6039 107.545 20.3554 108.947 21.7121 111.833C21.7432 111.903 21.7875 111.961 21.8408 112.002C21.894 112.043 21.9545 112.065 22.0163 112.067C22.0725 112.066 22.1276 112.048 22.1772 112.013C22.2268 111.979 22.2691 111.929 22.3007 111.869C25.0361 109.161 27.7473 107.545 29.5627 107.545C33.851 107.545 36.4145 111.734 36.4145 118.745C36.4145 120.761 36.3999 123.318 36.3852 125.702C36.3729 127.795 36.3605 129.757 36.3605 131.113C36.3605 131.433 36.6992 132.355 37.207 132.537C37.835 132.937 38.7403 133.142 39.8859 133.398H39.9301C40.016 133.801 39.8345 135.366 39.6604 135.686C39.3758 135.686 38.983 135.654 38.4924 135.622C37.6018 135.565 36.3804 135.485 34.9599 135.485C32.1092 135.485 30.6199 135.555 29.197 135.677C29.089 135.213 29.0523 133.715 29.1823 133.401C29.7716 133.281 30.3549 133.116 30.9292 132.905C31.8369 132.515 32.0993 131.977 32.1557 130.406C32.1778 129.289 32.3422 119.449 32.0502 117.113C31.7804 114.691 30.3819 111.856 27.3227 111.856C26.1868 111.856 24.3544 112.473 22.6076 114.201C22.4993 114.362 22.4382 114.567 22.4357 114.781V114.829C22.6418 116.089 22.642 117.561 22.642 119.785C22.642 121.065 22.6419 122.4 22.6296 123.734C22.6173 126.448 22.6077 129.008 22.642 130.944C22.642 132.262 23.2529 132.579 23.746 132.832C24.0135 132.909 24.2243 132.976 24.4377 133.04C24.8474 133.171 25.2742 133.305 25.9096 133.437C26.0037 133.999 25.9952 134.582 25.885 135.139C25.859 135.348 25.7961 135.546 25.7011 135.718C24.1163 135.648 22.4898 135.587 20.142 135.587C19.4306 135.587 18.2703 135.625 17.2448 135.661C16.4132 135.689 15.6281 135.718 15.1816 135.721C15.0608 135.35 15.0072 134.947 15.0246 134.544C14.9996 134.164 15.0564 133.783 15.1889 133.443L15.8193 133.293C16.3688 133.165 16.845 133.056 17.2915 132.909C18.0667 132.589 18.3583 132.038 18.4147 130.749C18.5669 127.741 18.6849 119.072 18.3586 116.902C17.8042 113.421 16.2855 111.654 13.842 111.654C12.4117 111.654 10.6035 112.553 9.12666 113.997C8.98461 114.177 8.87278 114.394 8.79805 114.633C8.72332 114.873 8.68746 115.13 8.69258 115.389C8.69258 116.422 8.69258 117.651 8.69258 118.969C8.69258 123.321 8.67046 128.739 8.75142 131.081C8.80049 131.805 8.99689 132.662 10.0346 132.976C10.2628 133.062 10.6552 133.145 11.1115 133.245C11.374 133.302 11.6609 133.363 11.9577 133.433C12.0521 134.2 12.0043 134.984 11.8181 135.721C11.3618 135.721 10.7999 135.683 10.1572 135.648C9.17587 135.59 7.94905 135.52 6.56294 135.52C4.92415 135.52 3.78344 135.59 2.86836 135.648C2.25259 135.686 1.7203 135.718 1.18794 135.721" fill="#E7EAE6"/>
<path d="M53.7937 110.438C52.9082 110.414 52.0372 110.734 51.2912 111.357C49.4709 112.8 48.5437 115.683 48.5437 119.92C48.5437 127.849 51.5882 133.389 55.9477 133.389C57.1166 133.437 58.2567 132.91 59.1418 131.913C60.4813 130.489 61.1928 127.577 61.1928 123.501C61.1928 115.689 58.2169 110.438 53.7888 110.438M54.6276 136.329C46.7526 136.329 43.9484 128.793 43.9484 121.744C43.9484 116.819 45.4918 112.969 48.5363 110.297C50.6687 108.575 53.1163 107.632 55.6237 107.565C61.6318 107.565 65.8293 113.2 65.8293 121.273C65.8293 126.758 64.1537 131.091 60.9816 133.798C59.4582 135.014 56.8111 136.329 54.6276 136.329Z" fill="#E7EAE6"/>
<path d="M133.967 110.438C133.08 110.412 132.206 110.732 131.459 111.357C129.639 112.8 128.712 115.683 128.712 119.92C128.712 127.849 131.756 133.389 136.116 133.389C137.288 133.44 138.432 132.913 139.32 131.913C140.659 130.489 141.368 127.577 141.368 123.501C141.368 115.689 138.395 110.438 133.967 110.438ZM134.806 136.329C126.931 136.329 124.127 128.793 124.127 121.747C124.127 116.816 125.67 112.969 128.717 110.297C130.848 108.574 133.295 107.631 135.802 107.565C141.81 107.565 146.007 113.203 146.007 121.27C146.007 126.761 144.332 131.091 141.16 133.795C139.636 135.014 136.989 136.329 134.806 136.329Z" fill="#E7EAE6"/>
<path d="M107.452 110.169C105.025 110.169 103.455 112.669 103.455 116.537C103.455 120.406 104.807 125.005 108.607 125.005C109.26 125.005 110.442 124.627 111.029 123.785C111.912 122.726 112.5 120.537 112.5 118.227C112.5 113.181 110.617 110.169 107.464 110.169M107.15 136.87C106.464 136.86 105.789 137.081 105.187 137.51C103.267 139.11 102.376 140.71 102.376 142.569C102.376 144.31 102.893 145.696 104.007 146.925C105.357 148.416 107.177 149.142 109.569 149.142C114.277 149.142 116.386 145.84 116.386 142.569C116.386 140.291 115.511 138.765 113.707 137.901C112.319 137.238 109.998 136.873 107.157 136.873M107.471 152.553C104.645 152.553 102.609 151.776 100.87 150.029C99.1768 148.326 98.4162 145.798 98.4162 144.051C98.4345 142.925 98.764 141.846 99.3437 141.011C99.8344 140.281 100.975 138.915 103.612 136.55C103.653 136.527 103.688 136.49 103.712 136.441C103.737 136.393 103.75 136.336 103.75 136.278C103.751 136.214 103.734 136.15 103.704 136.099C103.674 136.048 103.631 136.012 103.583 135.997C101.412 134.912 100.757 133.117 100.558 132.157C100.558 132.121 100.558 132.067 100.536 132.006C100.475 131.629 100.416 131.27 100.811 130.902C101.115 130.621 101.6 130.243 102.121 129.843C102.855 129.313 103.559 128.715 104.228 128.054C104.264 128.004 104.291 127.943 104.306 127.877C104.321 127.811 104.325 127.742 104.316 127.674C104.308 127.606 104.287 127.541 104.257 127.485C104.226 127.429 104.186 127.383 104.14 127.35C100.926 125.942 99.3068 122.829 99.3068 118.07C99.297 116.586 99.5616 115.121 100.078 113.799C100.595 112.477 101.349 111.338 102.275 110.477C103.568 109.142 106.814 107.539 108.916 107.539H109.039C111.2 107.606 112.42 108.198 114.107 109.011C115.067 109.464 116.085 109.674 117.105 109.632C118.894 109.632 119.676 108.893 120.349 108.032C120.458 108.419 120.516 108.828 120.52 109.241C120.561 110.225 120.357 111.2 119.936 112.019C119.571 112.681 118.71 113.161 117.922 113.161C117.841 113.161 117.763 113.161 117.677 113.145C117.263 113.107 116.852 113.018 116.45 112.88L116.249 112.973C116.185 113.094 116.227 113.229 116.279 113.401C116.291 113.435 116.301 113.471 116.308 113.507C116.452 114.361 116.549 115.227 116.6 116.099C116.6 121.075 115.096 123.241 113.469 124.848C111.897 126.387 110.029 127.33 108.072 127.574C108.031 127.574 107.827 127.597 107.444 127.641C107.199 127.67 106.88 127.709 106.833 127.709H106.787C106.434 127.837 105.511 128.409 105.511 129.475C105.511 130.358 105.928 131.456 107.923 131.654L109.213 131.773C111.843 132.013 115.128 132.31 116.674 132.992C117.699 133.462 118.584 134.342 119.204 135.507C119.824 136.671 120.146 138.061 120.125 139.478C120.125 143.942 117.692 148.141 113.617 150.707C111.695 151.904 109.591 152.52 107.461 152.509" fill="#E7EAE6"/>
<path d="M95.4157 133.341C94.2627 133.139 93.4213 132.934 92.4277 132.326C92.2327 132.063 92.1044 131.728 92.0598 131.366C91.9543 129.27 91.9543 123.187 91.9543 119.206C91.9543 115.958 91.5373 113.126 90.4824 111.094C89.2238 108.793 87.4428 107.443 85.1367 107.443C83.0931 107.443 80.3675 109.267 78.1154 111.769C78.0615 111.837 77.7155 112.265 77.7229 111.6C77.7302 110.934 77.8088 109.584 77.8579 108.72C77.8797 108.49 77.8599 108.257 77.8002 108.039C77.7406 107.822 77.6427 107.625 77.5144 107.465C76.0424 108.425 71.9134 109.705 70.385 109.901C69.2712 110.182 68.9891 111.581 70.1789 112.064H70.1962C71.1487 112.406 72.0576 112.928 72.8947 113.613C73.3658 114.086 73.3144 114.761 73.3144 115.302C73.3659 119.83 73.3659 126.793 73.2089 130.579C73.1574 132.067 72.8407 132.608 72.0017 132.88L72.0803 132.845C71.4414 133.053 70.7934 133.212 70.1398 133.318C69.8773 133.654 69.8773 135.616 70.1398 136.022C70.6648 136.022 73.3291 135.821 75.5371 135.821C78.5742 135.821 80.1468 136.022 80.9343 136.022C81.2508 135.549 81.3537 133.725 81.1452 133.318C80.4195 133.275 79.6988 133.139 78.9936 132.912C78.157 132.643 77.946 132.099 77.8945 130.886C77.7914 127.705 77.7917 120.947 77.7917 116.349C77.7917 115.069 78.0517 114.457 78.3657 114.109C79.4132 112.893 81.1452 112.083 82.6638 112.083C84.1357 112.083 85.1172 112.691 85.8532 113.501C86.7105 114.476 87.2477 115.844 87.3544 117.321C87.563 119.881 87.509 125.03 87.509 129.481C87.509 131.917 87.3543 132.528 86.6723 132.797C86.3583 132.998 85.5194 133.203 84.5234 133.337C84.2094 133.744 84.3124 135.635 84.5234 136.041C85.885 136.041 87.4674 135.84 89.7636 135.84C92.6462 135.84 94.4813 136.041 95.2148 136.041C95.5288 135.568 95.6343 133.801 95.4257 133.337" fill="#E7EAE6"/>
</svg>
