<svg width="130" height="auto" viewBox="0 0 180 60" fill="none" xmlns="http://www.w3.org/2000/svg">
<mask id="path-1-inside-1_7_530" fill="white">
<path d="M21.7498 24.068C19.273 10.56 14.1105 6.96399 12.7936 4.42199C12.2506 3.30217 11.7695 2.13818 11.3538 0.937988C11.2842 2.13799 11.1564 2.89399 10.3313 3.80399C8.67465 5.62999 1.63876 12.718 1.04664 28.066C0.49496 42.376 9.55636 51.2 10.7535 52.112C11.6741 52.672 12.7952 52.124 13.3421 51.61C17.7102 47.904 23.6783 38.024 21.7547 24.068"/>
</mask>
<path d="M21.7498 24.068C19.273 10.56 14.1105 6.96399 12.7936 4.42199C12.2506 3.30217 11.7695 2.13818 11.3538 0.937988C11.2842 2.13799 11.1564 2.89399 10.3313 3.80399C8.67465 5.62999 1.63876 12.718 1.04664 28.066C0.49496 42.376 9.55636 51.2 10.7535 52.112C11.6741 52.672 12.7952 52.124 13.3421 51.61C17.7102 47.904 23.6783 38.024 21.7547 24.068" fill="white"/>
<path d="M12.7936 4.42199L10.994 5.29465L11.0056 5.31847L11.0178 5.34198L12.7936 4.42199ZM11.3538 0.937988L13.2436 0.283313L9.3571 0.822239L11.3538 0.937988ZM10.3313 3.80399L11.8125 5.14784L11.8129 5.14738L10.3313 3.80399ZM1.04664 28.066L-0.951878 27.9889L-0.95188 27.9889L1.04664 28.066ZM10.7535 52.112L9.54157 53.7029L9.62476 53.7663L9.71409 53.8207L10.7535 52.112ZM13.3421 51.61L12.0482 50.0849L12.0093 50.1178L11.9722 50.1527L13.3421 51.61ZM23.7171 23.7073C22.4372 16.7275 20.4446 12.2197 18.5461 9.09438C17.6024 7.54092 16.6993 6.35826 15.9761 5.43288C15.1973 4.4366 14.7894 3.92659 14.5695 3.502L11.0178 5.34198C11.4563 6.18839 12.1875 7.08113 12.8245 7.89616C13.517 8.78209 14.3062 9.81931 15.1274 11.1711C16.7586 13.8563 18.5856 17.9005 19.7826 24.4287L23.7171 23.7073ZM14.5932 3.54932C14.0852 2.50177 13.6341 1.41065 13.2436 0.283313L9.46394 1.59266C9.90495 2.8657 10.416 4.10258 10.994 5.29465L14.5932 3.54932ZM9.3571 0.822239C9.32328 1.40564 9.28194 1.67825 9.21966 1.87438C9.17356 2.01954 9.0948 2.1902 8.84964 2.46059L11.8129 5.14738C12.3929 4.50777 12.7906 3.84544 13.032 3.0851C13.2573 2.37573 13.3147 1.67033 13.3504 1.05374L9.3571 0.822239ZM8.85006 2.46013C7.07546 4.41614 -0.332822 11.9427 -0.951878 27.9889L3.04515 28.1431C3.61034 13.4932 10.2738 6.84384 11.8125 5.14784L8.85006 2.46013ZM-0.95188 27.9889C-1.24517 35.5967 1.01957 41.7478 3.50745 46.1049C5.97072 50.419 8.7057 53.0662 9.54157 53.7029L11.9655 50.521C11.6042 50.2458 9.20989 48.025 6.98108 44.1215C4.77688 40.2612 2.78677 34.8452 3.04515 28.143L-0.95188 27.9889ZM9.71409 53.8207C10.7795 54.4688 11.9004 54.4237 12.7326 54.1881C13.5414 53.9592 14.2341 53.5163 14.7119 53.0673L11.9722 50.1527C11.9494 50.1742 11.8984 50.2156 11.8263 50.2578C11.7551 50.2995 11.6904 50.326 11.6432 50.3393C11.5961 50.3527 11.5931 50.3456 11.6281 50.3484C11.6722 50.3519 11.7355 50.3683 11.793 50.4033L9.71409 53.8207ZM14.636 53.135C19.5214 48.9901 25.7537 38.4337 23.736 23.7949L19.7734 24.3411C21.6029 37.6143 15.8989 46.8179 12.0482 50.0849L14.636 53.135Z" fill="#E7EAE6" mask="url(#path-1-inside-1_7_530)"/>
<path d="M11.729 44.4922C11.5009 48.0342 11.3375 50.0922 10.7583 52.1162C10.7583 52.1162 11.1385 55.4882 11.4054 59.0602H12.3502C12.5756 56.5448 12.9197 54.0479 13.3808 51.5822C12.1577 50.8382 11.7759 47.6002 11.729 44.4922Z" fill="#E7EAE6"/>
<path d="M13.3792 51.5842C12.1432 50.8782 11.7857 47.5722 11.7307 44.4922C12.0363 39.4115 12.1254 34.3145 11.9976 29.2222C11.9329 26.5502 12.0283 4.47419 11.4653 1.24219C11.8505 2.33683 12.2942 3.39852 12.7936 4.42019C14.1105 6.96419 19.2745 10.5602 21.7498 24.0682C23.6782 38.0002 17.7425 47.8542 13.3792 51.5842Z" fill="#E7EAE6"/>
<path d="M176.294 46.7C175.764 46.6999 175.247 46.5064 174.806 46.1438C174.366 45.7812 174.022 45.2657 173.818 44.6621C173.613 44.0585 173.558 43.3937 173.659 42.7514C173.759 42.109 174.011 41.5178 174.383 41.052C174.755 40.5862 175.229 40.2666 175.748 40.1334C176.266 40.0003 176.804 40.0594 177.295 40.3035C177.786 40.5476 178.208 40.9657 178.507 41.5053C178.807 42.0448 178.97 42.6818 178.978 43.336C178.987 43.7771 178.925 44.2161 178.794 44.6265C178.663 45.037 178.466 45.4106 178.215 45.7247C177.965 46.0389 177.665 46.2872 177.335 46.4548C177.005 46.6224 176.65 46.7058 176.294 46.7ZM176.294 40.364C175.81 40.36 175.336 40.5336 174.933 40.8626C174.529 41.1917 174.213 41.6615 174.026 42.2125C173.838 42.7635 173.787 43.3709 173.879 43.9578C173.971 44.5448 174.202 45.0847 174.542 45.5094C174.882 45.9341 175.317 46.2243 175.791 46.3434C176.265 46.4625 176.757 46.405 177.204 46.1782C177.651 45.9515 178.034 45.5657 178.304 45.0697C178.574 44.5737 178.719 43.9898 178.72 43.392C178.727 42.9945 178.668 42.5996 178.549 42.2306C178.429 41.8615 178.251 41.5258 178.025 41.2435C177.799 40.9611 177.529 40.7378 177.231 40.5867C176.934 40.4356 176.615 40.3599 176.294 40.364ZM176.941 45.48L176.248 43.634H175.69V45.48H175.284V41.28H176.285C177.031 41.28 177.342 41.68 177.342 42.454C177.342 43.07 177.107 43.454 176.671 43.572L177.386 45.474L176.941 45.48ZM175.706 43.2H176.294C176.769 43.2 176.95 43 176.95 42.464C176.95 41.928 176.777 41.746 176.242 41.746H175.706V43.2Z" fill="#E7EAE6"/>
<path d="M136.348 43.676C137.075 44.394 138.526 44.69 139.805 44.69C141.464 44.69 143.09 44.31 144.678 42.536C146.296 40.718 147.409 37.936 147.409 33.494C147.409 29.226 146.096 25.762 143.4 23.734C141.879 22.552 139.909 22.086 137.662 22.086C137.015 22.086 136.348 22.128 135.97 22.34C135.814 22.4915 135.705 22.7026 135.657 22.94C135.589 23.7 135.589 29.488 135.589 32.91C135.589 36.418 135.589 41.31 135.657 41.91C135.693 42.418 135.9 43.31 136.348 43.684M129.45 20.186C130.037 20.186 132.27 20.312 133.308 20.312C135.25 20.312 136.591 20.186 140.22 20.186C143.261 20.186 145.82 21.2 147.65 23.142C149.863 25.51 151.048 28.804 151.048 32.818C151.048 38.522 148.944 41.818 146.83 43.676C144.727 45.62 141.991 46.718 138.094 46.718C136.02 46.718 132.459 46.634 129.487 46.592H129.426C129.286 46.254 129.68 44.936 129.922 44.902C130.731 44.79 130.945 44.75 131.317 44.56C131.944 44.242 132.092 43.846 132.161 42.452C132.265 39.832 132.231 36.706 132.231 33.156C132.231 30.622 132.265 25.678 132.197 24.114C132.092 22.806 131.645 22.468 130.741 22.214C130.099 22.0456 129.451 21.9188 128.799 21.834C128.731 21.58 129.262 20.434 129.435 20.186" fill="#E7EAE6"/>
<path d="M159.614 22.3298C159.476 22.3718 159.303 22.7958 159.303 23.0058C159.268 24.5278 159.234 28.4978 159.234 31.2438C159.243 31.2963 159.264 31.3444 159.294 31.3821C159.325 31.4198 159.364 31.4454 159.407 31.4558C159.855 31.4978 160.962 31.5418 161.895 31.5418C163.209 31.5418 163.969 31.3298 164.383 31.0758C165.49 30.3998 166.001 28.9198 166.001 27.3158C166.001 23.6398 163.927 22.2458 160.852 22.2458C160.436 22.2393 160.02 22.2673 159.608 22.3298M167.454 39.2298C167.454 35.5118 165.241 33.3998 161.196 33.3998C161.025 33.3998 159.74 33.3578 159.434 33.4418C159.331 33.4838 159.227 33.5678 159.227 33.6538C159.227 36.3158 159.192 40.5818 159.297 42.2718C159.366 42.9898 159.782 44.0038 160.298 44.2998C160.852 44.6798 162.096 44.7638 162.96 44.7638C165.344 44.7638 167.454 43.1178 167.454 39.2298ZM153.369 20.2598C153.681 20.2598 154.6 20.3858 156.951 20.3858C159.163 20.3858 160.96 20.3018 163.099 20.3018C165.76 20.3018 169.423 21.4858 169.423 26.3858C169.423 28.7858 168.041 30.7378 166.244 31.6678C166.14 31.7098 166.14 31.7938 166.244 31.8358C168.802 32.6358 171.047 34.5818 171.047 38.2998C171.047 41.9338 169.216 44.2158 166.554 45.6518C164.937 46.5398 162.926 46.8338 160.892 46.8338C159.337 46.8338 155.17 46.6338 152.853 46.6658C152.61 46.5398 153.075 45.1858 153.282 44.9758C153.813 44.9556 154.339 44.8535 154.85 44.6718C155.678 44.4198 155.777 44.0898 155.88 42.5678C155.95 41.2578 155.95 36.5678 155.95 33.2298C155.95 28.6658 155.985 25.5838 155.95 24.0618C155.916 22.8798 155.569 22.4978 154.913 22.2878C154.395 22.1598 153.531 22.0338 152.84 21.9078C152.667 21.6958 153.199 20.4278 153.371 20.2598" fill="#E7EAE6"/>
<path d="M29.4039 46.6999C29.3149 46.4295 29.2789 46.1369 29.2988 45.8459C29.291 45.6476 29.3274 45.4505 29.4039 45.2759C29.851 45.1962 30.2939 45.0847 30.7305 44.9419C31.3421 44.7539 31.5718 44.3419 31.6074 43.3779C31.7077 41.0999 31.7142 36.8259 31.6786 33.8219V33.7339C31.6786 33.4099 31.6786 32.9699 31.355 32.6599C30.7863 32.2189 30.1689 31.882 29.522 31.6599C29.2324 31.5539 29.0723 31.3659 29.0804 31.1459C29.0885 30.9259 29.2713 30.6659 29.6482 30.5739C30.6497 30.4479 33.2738 29.6739 34.3043 29.0859C34.4104 29.2569 34.4596 29.4716 34.4418 29.6859C34.4418 29.8179 34.4256 29.9579 34.4143 30.1019C34.3852 30.5259 34.3528 31.0079 34.3528 31.4879C34.3592 31.5462 34.3786 31.6012 34.4088 31.6466C34.439 31.6921 34.4789 31.7262 34.524 31.7451C34.5691 31.764 34.6175 31.767 34.6639 31.7537C34.7102 31.7404 34.7527 31.7114 34.7864 31.6699C36.7488 29.7679 38.5074 29.0899 39.4085 29.0899C40.8921 29.0899 42.0472 29.9659 42.9418 31.7699C42.9623 31.8135 42.9916 31.8498 43.0267 31.8754C43.0618 31.9009 43.1017 31.9149 43.1424 31.9159C43.1795 31.9155 43.2159 31.904 43.2486 31.8824C43.2813 31.8608 43.3092 31.8298 43.3301 31.7919C45.134 30.0999 46.9217 29.0899 48.1188 29.0899C50.9468 29.0899 52.6374 31.7079 52.6374 36.0899C52.6374 37.3499 52.6277 38.9479 52.618 40.4379C52.6099 41.7459 52.6018 42.9719 52.6018 43.8199C52.6018 44.0199 52.8251 44.5959 53.16 44.7099C53.5741 44.9599 54.1711 45.0879 54.9266 45.2479H54.9557C55.0124 45.4999 54.8926 46.4779 54.7778 46.6779C54.5901 46.6779 54.3313 46.6579 54.0077 46.6379C53.4204 46.6019 52.6148 46.5519 51.678 46.5519C49.7981 46.5519 48.8161 46.5959 47.8778 46.6719C47.8066 46.3819 47.7823 45.4459 47.8681 45.2499C48.2567 45.1748 48.6413 45.0713 49.02 44.9399C49.6186 44.6959 49.7917 44.3599 49.8289 43.3779C49.8434 42.6799 49.9518 36.5299 49.7593 35.0699C49.5814 33.5559 48.6592 31.7839 46.6418 31.7839C45.8927 31.7839 44.6842 32.1699 43.5323 33.2499C43.4609 33.3501 43.4207 33.4784 43.4191 33.6119V33.6419C43.555 34.4299 43.555 35.3499 43.555 36.7399C43.555 37.5399 43.555 38.3739 43.5469 39.2079C43.5388 40.9039 43.5323 42.5039 43.555 43.7139C43.555 44.5379 43.9578 44.7359 44.283 44.8939C44.4593 44.9419 44.5985 44.9839 44.7392 45.0239C45.0094 45.1059 45.2909 45.1899 45.7099 45.2719C45.7719 45.6233 45.7664 45.9877 45.6937 46.3359C45.6766 46.4666 45.6351 46.5906 45.5724 46.6979C44.5273 46.6539 43.4547 46.6159 41.9064 46.6159C41.4373 46.6159 40.672 46.6399 39.9958 46.6619C39.4473 46.6799 38.9296 46.6979 38.6352 46.6999C38.5556 46.4676 38.5201 46.2158 38.5317 45.9639C38.5151 45.7266 38.5527 45.4883 38.6401 45.2759L39.0558 45.1819C39.4182 45.1019 39.7321 45.0339 40.0265 44.9419C40.5378 44.7419 40.7303 44.3979 40.7675 43.5919C40.8678 41.7119 40.9454 36.2939 40.7303 34.9379C40.3646 32.7619 39.3632 31.6579 37.7519 31.6579C36.8087 31.6579 35.6164 32.2199 34.6424 33.1219C34.5487 33.2347 34.4749 33.3702 34.4257 33.5199C34.3764 33.6696 34.3527 33.8304 34.3561 33.9919C34.3561 34.6379 34.3561 35.4059 34.3561 36.2299C34.3561 38.9499 34.3415 42.3359 34.3949 43.7999C34.4273 44.2519 34.5567 44.7879 35.241 44.9839C35.3915 45.0379 35.6503 45.0899 35.9512 45.1519C36.1243 45.1879 36.3136 45.2259 36.5094 45.2699C36.5716 45.7489 36.54 46.2393 36.4172 46.6999C36.1163 46.6999 35.7458 46.6759 35.3219 46.6539C34.6748 46.6179 33.8659 46.5739 32.9518 46.5739C31.8711 46.5739 31.1188 46.6179 30.5154 46.6539C30.1093 46.6779 29.7582 46.6979 29.4072 46.6999" fill="#E7EAE6"/>
<path d="M64.0978 30.8981C63.5139 30.8831 62.9395 31.0828 62.4476 31.4721C61.2472 32.3741 60.6356 34.1761 60.6356 36.8241C60.6356 41.7801 62.6434 45.2421 65.5182 45.2421C66.289 45.2723 67.0409 44.9432 67.6246 44.3201C68.5079 43.4301 68.9771 41.6101 68.9771 39.0621C68.9771 34.1801 67.0147 30.8981 64.0945 30.8981M64.6478 47.0801C59.4546 47.0801 57.6055 42.3701 57.6055 37.9641C57.6055 34.8861 58.6231 32.4801 60.6308 30.8101C62.037 29.7338 63.6511 29.144 65.3047 29.1021C69.2667 29.1021 72.0348 32.6241 72.0348 37.6701C72.0348 41.0981 70.9298 43.8061 68.838 45.4981C67.8333 46.2581 66.0877 47.0801 64.6478 47.0801Z" fill="#E7EAE6"/>
<path d="M116.968 30.8981C116.383 30.8817 115.807 31.0815 115.315 31.4721C114.114 32.3741 113.503 34.1761 113.503 36.8241C113.503 41.7801 115.51 45.2421 118.385 45.2421C119.158 45.2743 119.913 44.9451 120.498 44.3201C121.381 43.4301 121.849 41.6101 121.849 39.0621C121.849 34.1801 119.888 30.8981 116.968 30.8981ZM117.521 47.0801C112.328 47.0801 110.479 42.3701 110.479 37.9661C110.479 34.8841 111.497 32.4801 113.506 30.8101C114.911 29.7332 116.525 29.1433 118.178 29.1021C122.14 29.1021 124.908 32.6261 124.908 37.6681C124.908 41.1001 123.803 43.8061 121.712 45.4961C120.707 46.2581 118.961 47.0801 117.521 47.0801Z" fill="#E7EAE6"/>
<path d="M99.4828 30.7299C97.8828 30.7299 96.8474 32.2919 96.8474 34.7099C96.8474 37.1279 97.7388 40.0019 100.245 40.0019C100.675 40.0019 101.455 39.7659 101.842 39.2399C102.424 38.5779 102.812 37.2099 102.812 35.7659C102.812 32.6119 101.57 30.7299 99.4909 30.7299M99.2838 47.4179C98.8318 47.4118 98.3861 47.5496 97.9896 47.8179C96.7228 48.8179 96.1356 49.8179 96.1356 50.9799C96.1356 52.0679 96.4769 52.9339 97.2114 53.7019C98.1012 54.6339 99.3016 55.0879 100.879 55.0879C103.984 55.0879 105.375 53.0239 105.375 50.9799C105.375 49.5559 104.797 48.6019 103.608 48.0619C102.693 47.6479 101.162 47.4199 99.2887 47.4199M99.4958 57.2199C97.632 57.2199 96.2893 56.7339 95.1422 55.6419C94.0259 54.5779 93.5244 52.9979 93.5244 51.9059C93.5365 51.2022 93.7536 50.5275 94.1359 50.0059C94.4595 49.5499 95.2118 48.6959 96.951 47.2179C96.9779 47.2038 97.0009 47.1801 97.017 47.1498C97.0331 47.1196 97.0417 47.0842 97.0415 47.0479C97.0421 47.0075 97.0315 46.9681 97.0115 46.9361C96.9915 46.9041 96.9633 46.8815 96.9315 46.8719C95.4998 46.1939 95.0678 45.0719 94.9368 44.4719C94.9368 44.4499 94.9368 44.4159 94.9222 44.3779C94.8818 44.1419 94.8429 43.9179 95.1034 43.6879C95.304 43.5119 95.6243 43.2759 95.9673 43.0259C96.4515 42.6946 96.9159 42.321 97.357 41.9079C97.3807 41.8764 97.3983 41.8386 97.4084 41.7974C97.4185 41.7563 97.4208 41.7128 97.4151 41.6703C97.4095 41.6278 97.3961 41.5875 97.3759 41.5524C97.3558 41.5174 97.3294 41.4885 97.2988 41.4679C95.1794 40.5879 94.1117 38.6419 94.1117 35.6679C94.1052 34.7406 94.2797 33.8249 94.6205 32.9987C94.9613 32.1725 95.4583 31.4601 96.0692 30.9219C96.9218 30.0879 99.0622 29.0859 100.449 29.0859H100.53C101.955 29.1279 102.759 29.4979 103.872 30.0059C104.505 30.289 105.176 30.4206 105.849 30.3939C107.028 30.3939 107.544 29.9319 107.988 29.3939C108.06 29.6363 108.098 29.8919 108.101 30.1499C108.128 30.7649 107.993 31.3741 107.716 31.8859C107.475 32.2999 106.907 32.5999 106.388 32.5999C106.334 32.5999 106.283 32.5999 106.226 32.5899C105.953 32.5662 105.682 32.5106 105.417 32.4239L105.284 32.4819C105.242 32.5579 105.27 32.6419 105.304 32.7499C105.312 32.7711 105.319 32.7932 105.323 32.8159C105.418 33.3497 105.482 33.891 105.516 34.4359C105.516 37.5459 104.524 38.8999 103.451 39.9039C102.414 40.8659 101.183 41.4555 99.8921 41.6079C99.8646 41.6079 99.7304 41.6219 99.478 41.6499C99.3162 41.6679 99.1059 41.6919 99.0751 41.6919H99.0444C98.8114 41.7719 98.2031 42.1299 98.2031 42.7959C98.2031 43.3479 98.4782 44.0339 99.7935 44.1579L100.644 44.2319C102.379 44.3819 104.545 44.5679 105.564 44.9939C106.24 45.2878 106.824 45.8378 107.233 46.5657C107.642 47.2935 107.854 48.1621 107.84 49.0479C107.84 51.8379 106.236 54.4619 103.548 56.0659C102.281 56.8142 100.894 57.1991 99.4893 57.1919" fill="#E7EAE6"/>
<path d="M91.5461 45.2119C90.7857 45.0859 90.2308 44.9579 89.5756 44.5779C89.447 44.4132 89.3623 44.2038 89.3329 43.9779C89.2633 42.6679 89.2633 38.8659 89.2633 36.3779C89.2633 34.3479 88.9883 32.5779 88.2926 31.3079C87.4627 29.8699 86.2882 29.0259 84.7674 29.0259C83.4198 29.0259 81.6224 30.1659 80.1372 31.7299C80.1016 31.7719 79.8735 32.0399 79.8784 31.6239C79.8832 31.2079 79.935 30.3639 79.9673 29.8239C79.9817 29.6804 79.9687 29.5348 79.9294 29.3986C79.89 29.2625 79.8255 29.1396 79.7408 29.0399C78.7702 29.6399 76.0474 30.4399 75.0395 30.5619C74.305 30.7379 74.1189 31.6119 74.9036 31.9139H74.9149C75.543 32.128 76.1425 32.4541 76.6945 32.8819C77.0051 33.1779 76.9711 33.5999 76.9711 33.9379C77.0051 36.7679 77.0051 41.1199 76.9016 43.4859C76.8676 44.4159 76.6589 44.7539 76.1056 44.9239L76.1574 44.9019C75.736 45.0324 75.3087 45.1313 74.8777 45.1979C74.7046 45.4079 74.7046 46.6339 74.8777 46.8879C75.2239 46.8879 76.9808 46.7619 78.4369 46.7619C80.4397 46.7619 81.4768 46.8879 81.9961 46.8879C82.2048 46.5919 82.2727 45.4519 82.1352 45.1979C81.6567 45.1711 81.1814 45.086 80.7164 44.9439C80.1647 44.7759 80.0256 44.4359 79.9916 43.6779C79.9237 41.6899 79.9237 37.4659 79.9237 34.5919C79.9237 33.7919 80.0951 33.4099 80.3022 33.1919C80.993 32.4319 82.1352 31.9259 83.1366 31.9259C84.1073 31.9259 84.7545 32.3059 85.2398 32.8119C85.8051 33.4217 86.1595 34.2765 86.2299 35.1999C86.3674 36.7999 86.3318 40.0179 86.3318 42.7999C86.3318 44.3219 86.2299 44.7039 85.7802 44.8719C85.5731 44.9979 85.0198 45.1259 84.363 45.2099C84.1559 45.4639 84.2238 46.6459 84.363 46.8999C85.2608 46.8999 86.3043 46.7739 87.8186 46.7739C89.7195 46.7739 90.9297 46.8999 91.4134 46.8999C91.6205 46.6039 91.6901 45.4999 91.5525 45.2099" fill="#E7EAE6"/>
</svg>
