<svg width="90" height="60" viewBox="0 0 90 60" fill="none" xmlns="http://www.w3.org/2000/svg">
<path d="M61.84 0C61.3842 0 60.9668 0.383524 60.9668 0.917122V17.6754L57.3491 15.46C57.1226 15.3198 56.8674 15.2516 56.6119 15.2516C56.3564 15.2516 56.1012 15.3198 55.8748 15.46L47.1821 20.7841C46.7292 21.0585 46.4506 21.5664 46.4506 22.1122V32.7722C46.4506 33.3211 46.7292 33.8258 47.1821 34.1003L55.8748 39.4243C56.1012 39.5646 56.3564 39.6328 56.6119 39.6328C56.8674 39.6328 57.1226 39.5646 57.3491 39.4243L66.0417 34.1003C66.4946 33.8258 66.7732 33.318 66.7732 32.7722V27.4422V22.1122V3.75186C66.7732 3.20912 66.4973 2.71015 66.0531 2.43573L62.271 0.125062C62.1287 0.0396864 61.9852 0 61.84 0ZM33.3861 15.2516C33.1314 15.2516 32.8769 15.3213 32.649 15.46L23.9563 20.7841C23.5034 21.0585 23.2248 21.5664 23.2248 22.1122V32.7722C23.2248 33.3211 23.5034 33.8258 23.9563 34.1003L32.649 39.4243C33.1048 39.7018 33.6675 39.7018 34.1233 39.4243L42.8159 34.1003C43.2688 33.8258 43.5474 33.318 43.5474 32.7722V22.1122C43.5474 21.5633 43.2688 21.0585 42.8159 20.7841L34.1233 15.46C33.8954 15.3213 33.6409 15.2516 33.3861 15.2516ZM79.8377 15.2516C79.5823 15.2516 79.327 15.3198 79.1006 15.46L70.4079 20.7841C69.955 21.0585 69.6764 21.5664 69.6764 22.1122V32.7722C69.6764 33.3211 69.955 33.8258 70.4079 34.1003L78.8398 39.4541C79.2927 39.7438 79.861 39.7465 80.3197 39.466L84.4648 36.935C84.8944 36.6758 84.8973 36.0211 84.4648 35.7558L75.4829 30.1995V24.7266L79.8377 22.0645L84.1926 24.7266V28.538C84.1926 29.0472 84.6001 29.1256 84.873 28.9548C85.9704 28.2779 89.2789 26.263 89.2789 26.263C89.7231 25.9917 89.999 25.4896 89.999 24.9469V22.1122C89.999 21.5633 89.7205 21.0585 89.2675 20.7841L80.5749 15.46C80.3455 15.3198 80.0932 15.2516 79.8377 15.2516ZM10.1603 15.2576C9.90483 15.2576 9.64962 15.3257 9.42317 15.466L0.7305 20.7841C0.277597 21.0616 -0.000976562 21.5693 -0.000976562 22.1181V35.7261C-0.000976562 36.3908 0.683686 36.8028 1.22949 36.4705L5.08534 34.1122C5.52953 33.8377 5.80548 33.3388 5.80548 32.796V24.7385L10.1603 22.0705L14.5152 24.7385V32.796C14.5152 33.3388 14.7911 33.8377 15.2353 34.1122L19.0911 36.4705C19.6369 36.8059 20.3216 36.3908 20.3216 35.7261V22.1181C20.3216 21.5693 20.043 21.0616 19.5901 20.7841L10.8975 15.466C10.671 15.3257 10.4158 15.2576 10.1603 15.2576ZM56.6119 22.0645L60.9668 24.7325V27.4422V30.1519L56.6119 32.8199L52.2571 30.1519V24.7325L56.6119 22.0645ZM79.8377 24.405L77.3484 25.9295V28.9727L79.8377 30.4913L82.327 28.9727V25.9295L79.8377 24.405ZM44.7268 36.5836C44.4282 36.5836 44.1262 36.6604 43.865 36.8159L35.6996 41.7707C35.1625 42.0817 34.8377 42.6938 34.8377 43.331V53.2288C34.8377 53.8661 35.177 54.4659 35.6996 54.7891L37.8487 56.0754C38.8793 56.609 39.2582 56.6114 39.7256 56.6114C41.2643 56.6114 42.1412 55.645 42.1412 53.9375V44.1588C42.1412 44.0094 42.0308 43.9027 41.903 43.9027H40.871C40.7287 43.9027 40.6272 44.0247 40.6272 44.1588V53.9375C40.6272 54.6784 39.8817 55.4383 38.6652 54.801L36.4311 53.4491C36.3585 53.4034 36.3064 53.3113 36.3064 53.2228V43.3251C36.3064 43.2366 36.3469 43.1326 36.4311 43.0868L44.5964 38.1439C44.6835 38.0982 44.7819 38.0982 44.8516 38.1439L53.0226 43.0868C53.1068 43.1326 53.1473 43.2214 53.1473 43.3251V53.2228C53.1473 53.3265 53.0923 53.4153 53.0226 53.461L44.8516 58.4218C44.779 58.4676 44.6661 58.4676 44.5964 58.4218L42.5097 57.1176C42.4546 57.0871 42.3664 57.0693 42.3113 57.0998C41.7335 57.4565 41.6179 57.5032 41.0808 57.6953C40.9385 57.741 40.7452 57.8326 41.1545 58.0705L43.865 59.7618C44.135 59.9112 44.4307 60 44.7268 60C45.0375 60 45.3393 59.9115 45.5774 59.7499L53.7427 54.7891C54.2798 54.4781 54.6046 53.8661 54.6046 53.2288V43.331C54.6046 42.6938 54.2653 42.097 53.7427 41.7707L45.5774 36.8159C45.3234 36.6604 45.0255 36.5836 44.7268 36.5836ZM57.4625 41.1514C56.6293 41.1514 55.8975 41.859 55.8975 42.795C55.8975 43.7006 56.6002 44.4447 57.4625 44.4447C58.3247 44.4447 59.0275 43.7006 59.0275 42.795C59.0275 41.859 58.3102 41.1361 57.4625 41.1514ZM57.4455 41.4134C58.1829 41.4134 58.778 42.0236 58.778 42.795C58.778 43.5512 58.18 44.1762 57.4455 44.1945C56.7226 44.1945 56.1356 43.5665 56.1356 42.795C56.1356 42.0236 56.7255 41.4134 57.4455 41.4134ZM56.8728 41.8601V43.7122H57.2073V42.9737H57.5192C57.6469 42.9737 57.6773 43.0308 57.7063 43.1345C57.7063 43.1497 57.7598 43.6297 57.7744 43.7181H58.1373C58.0966 43.6297 58.0667 43.3763 58.0522 43.2238C58.0116 42.986 57.9983 42.8222 57.7573 42.8069C57.8851 42.7612 58.0976 42.6899 58.0976 42.3484C58.0976 41.8575 57.6914 41.8601 57.4795 41.8601H56.8728ZM57.2073 42.1578H57.4908C57.5779 42.1578 57.746 42.1549 57.746 42.4079C57.746 42.5116 57.7032 42.679 57.4738 42.6759H57.2073V42.1578ZM46.9156 43.6705C44.5843 43.6705 43.2015 44.714 43.2015 46.4338C43.2015 48.3181 44.5866 48.8222 46.8192 49.0601C49.4902 49.3406 49.6998 49.744 49.6998 50.2928C49.6998 51.2563 48.9633 51.6566 47.2388 51.6566C45.0759 51.6566 44.6001 51.0934 44.4433 49.9653C44.4288 49.8463 44.3272 49.7568 44.1995 49.7568H43.1391C43.0114 49.7568 42.901 49.8635 42.901 50.0129C42.901 51.4521 43.6479 53.1752 47.2218 53.1752C49.8434 53.1721 51.3271 52.1054 51.3271 50.2333C51.3271 48.3794 50.1386 47.8863 47.6244 47.5295C45.0812 47.1728 44.8289 46.9933 44.8289 46.3682C44.8289 45.8499 45.0372 45.1712 46.9156 45.1712C48.5966 45.1712 49.2231 45.5573 49.4786 46.7434C49.5076 46.8623 49.5865 46.934 49.6998 46.934H50.7601C50.8298 46.934 50.8896 46.9052 50.9302 46.8625C50.9738 46.8046 51.0014 46.7451 50.9869 46.672C50.8185 44.6229 49.5314 43.6705 46.9156 43.6705Z" fill="#E7EAE6"/>
</svg>
