<svg width="60" height="60" viewBox="0 0 60 60" fill="none" xmlns="http://www.w3.org/2000/svg">
<path fill-rule="evenodd" clip-rule="evenodd" d="M42.4564 0.00456484C41.4398 -0.0328733 40.3758 0.161244 39.3089 0.540073C37.1752 1.29773 34.9394 2.77422 32.6448 4.81856C31.7456 5.61973 30.8382 6.53555 29.9277 7.50725C29.0373 6.56022 28.1486 5.66898 27.2692 4.88549C24.9765 2.8428 22.7467 1.36574 20.6178 0.6098C18.489 -0.146143 16.3708 -0.169567 14.6311 0.930547C12.8914 2.03066 11.851 4.05012 11.3843 6.44739C10.9176 8.84466 10.969 11.6995 11.4378 14.8956C11.6006 16.0057 11.8328 17.1704 12.0973 18.3569C11.1033 18.6868 10.1379 19.0338 9.24272 19.4167C6.54113 20.5724 4.30573 21.9551 2.67791 23.6004C1.05009 25.2457 -0.000976562 27.2425 -0.000976562 29.4352C-0.000976562 31.6278 1.05009 33.6219 2.67791 35.2672C4.30573 36.9125 6.54113 38.2979 9.24272 39.4536C10.1999 39.8631 11.2363 40.2318 12.3061 40.5804C11.9213 42.1553 11.6095 43.6836 11.397 45.1322C10.9279 48.3309 10.8783 51.1861 11.3461 53.5888C11.8139 55.9915 12.8548 58.0224 14.603 59.128C16.3513 60.2335 18.479 60.2064 20.6127 59.4487C22.7464 58.691 24.9797 57.2173 27.2743 55.173C28.1653 54.3792 29.0665 53.4737 29.9685 52.5122C30.8752 53.4795 31.78 54.3892 32.6754 55.187C34.9681 57.2296 37.2004 58.7039 39.3293 59.4599C41.4581 60.2158 43.5764 60.2392 45.3161 59.1391C47.0558 58.039 48.0936 56.0195 48.5603 53.6223C49.027 51.225 48.9756 48.3729 48.5068 45.1769C48.2937 43.7243 47.9818 42.1909 47.5952 40.6111C48.7003 40.254 49.7694 39.8754 50.7553 39.4536C53.4569 38.2979 55.6923 36.9125 57.3201 35.2672C58.948 33.6219 59.999 31.6278 59.999 29.4352C59.999 27.2425 58.948 25.2457 57.3201 23.6004C55.6923 21.9551 53.4569 20.5724 50.7553 19.4167C49.8473 19.0283 48.8671 18.6768 47.8574 18.3429C48.1241 17.1492 48.3608 15.9762 48.5246 14.8593C48.9938 11.6607 49.0433 8.80269 48.5755 6.39998C48.1078 3.99727 47.0644 1.96916 45.3161 0.863608C44.4419 0.310833 43.4729 0.042003 42.4564 0.00456484ZM42.3367 2.91081C42.9746 2.92991 43.5188 3.09618 43.9843 3.39054C44.9152 3.97925 45.6034 5.12504 45.9705 7.01079C46.3376 8.89654 46.3249 11.4444 45.8916 14.3991C45.7432 15.4108 45.5277 16.4829 45.283 17.5815C42.616 16.8785 39.6937 16.3569 36.5791 16.0503C35.0156 13.6778 33.409 11.5164 31.7892 9.59908C32.646 8.68305 33.4972 7.82633 34.328 7.0861C36.4476 5.19764 38.4543 3.91266 40.1289 3.31802C40.9662 3.0207 41.6988 2.8917 42.3367 2.91081ZM17.5952 2.91918C18.2367 2.89956 18.9709 3.02821 19.8106 3.32639C21.49 3.92274 23.5002 5.20716 25.6216 7.09725C26.4358 7.82263 27.268 8.66305 28.107 9.55724C26.4752 11.4903 24.8554 13.6704 23.2814 16.0642C20.18 16.3764 17.2696 16.9009 14.6158 17.6066C14.3728 16.5141 14.1573 15.4475 14.0097 14.441C13.576 11.4836 13.5651 8.93545 13.9333 7.04426C14.3015 5.15307 14.9953 3.99864 15.9349 3.40448C16.4046 3.1074 16.9536 2.93879 17.5952 2.91918ZM29.9685 11.6546C31.0305 12.9206 32.0929 14.3059 33.1465 15.7965C32.1112 15.7492 31.0633 15.7212 29.999 15.7212C28.9136 15.7212 27.8457 15.7501 26.7905 15.7993C27.8443 14.3075 28.9061 12.9215 29.9685 11.6546ZM29.999 18.6051C31.772 18.6051 33.5002 18.6849 35.1811 18.8199C36.3377 20.6394 37.468 22.5697 38.545 24.6128C39.4913 26.4081 40.3477 28.2005 41.1271 29.9707C40.3394 31.7643 39.4687 33.581 38.5093 35.4011C37.6648 37.0032 36.7829 38.5248 35.8865 39.9919C33.9877 40.1657 32.0203 40.2625 29.999 40.2625C27.9291 40.2625 25.9174 40.16 23.9766 39.978C23.0951 38.532 22.2281 37.0334 21.397 35.4568C20.4398 33.641 19.5733 31.8276 18.7869 30.0376C19.5766 28.2376 20.447 26.4141 21.4098 24.5877C22.4811 22.5553 23.6081 20.6361 24.7584 18.8254C26.4574 18.6874 28.2056 18.6051 29.999 18.6051ZM38.5373 19.1769C40.6866 19.4706 42.7046 19.8784 44.5827 20.3678C44.0254 22.3687 43.339 24.4586 42.5073 26.6154C41.9673 25.4752 41.408 24.3312 40.8037 23.1848C40.0714 21.7955 39.3086 20.471 38.5373 19.1769ZM21.3206 19.1992C20.5656 20.4691 19.8227 21.7679 19.1052 23.129C18.4932 24.2901 17.9223 25.4495 17.3762 26.6042C16.5516 24.4604 15.8694 22.3824 15.3161 20.3929C17.1801 19.9026 19.1864 19.4962 21.3206 19.1992ZM47.1623 21.1264C48.0865 21.4327 48.9791 21.7524 49.7979 22.1026C52.2883 23.168 54.2583 24.4296 55.5351 25.7201C56.8118 27.0106 57.366 28.2413 57.366 29.4352C57.366 30.6291 56.8118 31.8598 55.5351 33.1503C54.2583 34.4408 52.2883 35.7023 49.7979 36.7677C48.888 37.1569 47.8883 37.5099 46.849 37.8443C46.1077 35.3327 45.1614 32.7125 44.0352 30.0376C45.3301 26.9666 46.3761 23.9723 47.1623 21.1264ZM12.7925 21.1404C13.5697 23.9579 14.6023 26.9224 15.8788 29.9623C14.7452 32.6528 13.7943 35.2879 13.0497 37.8136C12.047 37.488 11.0812 37.1446 10.2002 36.7677C7.70975 35.7023 5.73978 34.4408 4.46299 33.1503C3.1862 31.8598 2.63208 30.6291 2.63208 29.4352C2.63208 28.2413 3.1862 27.0106 4.46299 25.7201C5.73978 24.4296 7.70975 23.168 10.2002 22.1026C11.0064 21.7578 11.884 21.4427 12.7925 21.1404ZM29.999 22.8752C26.4141 22.8752 23.4801 26.0889 23.4801 30.0153C23.4801 33.9418 26.4141 37.1554 29.999 37.1554C33.5839 37.1554 36.518 33.9418 36.518 30.0153C36.518 26.0889 33.5839 22.8752 29.999 22.8752ZM17.4067 33.3929C17.9552 34.5533 18.5257 35.7178 19.1409 36.8849C19.6222 37.798 20.1138 38.6868 20.6127 39.5596C18.8618 39.2937 17.1974 38.957 15.6344 38.5583C16.1314 36.891 16.7261 35.1602 17.4067 33.3929ZM42.5404 33.3929C43.2238 35.1644 43.8187 36.8979 44.3178 38.5695C42.7499 38.9677 41.0804 39.3032 39.3242 39.568C39.8297 38.6845 40.329 37.7846 40.8164 36.8598C41.4271 35.7013 41.9953 34.5449 42.5404 33.3929ZM14.8832 41.3307C17.2428 41.9429 19.8004 42.4133 22.5124 42.7197C24.3228 45.5877 26.2089 48.1647 28.107 50.4176C27.2582 51.324 26.4169 52.1747 25.5936 52.9083C23.474 54.7967 21.4648 56.0789 19.7902 56.6735C18.1156 57.2682 16.8658 57.1897 15.9349 56.601C15.0039 56.0123 14.3183 54.8665 13.9511 52.9808C13.584 51.095 13.5942 48.55 14.0275 45.5952C14.2241 44.2548 14.518 42.8195 14.8832 41.3307ZM45.0716 41.3419C45.4398 42.8397 45.7345 44.2803 45.9323 45.6287C46.3661 48.586 46.3769 51.1342 46.0087 53.0254C45.6405 54.9166 44.9518 56.0738 44.0123 56.668C43.0727 57.2621 41.8109 57.3396 40.1314 56.7433C38.452 56.1469 36.4418 54.8625 34.3204 52.9724C33.4912 52.2336 32.6441 51.376 31.7892 50.4622C33.7001 48.2006 35.5994 45.6104 37.422 42.7252C40.1409 42.4209 42.7055 41.9534 45.0716 41.3419ZM25.9145 43.0125C27.2532 43.0924 28.6095 43.1464 29.999 43.1464C31.3426 43.1464 32.6549 43.0957 33.9511 43.0209C32.6261 44.979 31.2755 46.7591 29.9303 48.362C28.5859 46.7556 27.2378 44.9723 25.9145 43.0125Z" fill="#E7EAE6"/>
</svg>
