<svg width="70" height="60" viewBox="0 0 70 60" fill="none" xmlns="http://www.w3.org/2000/svg">
<path d="M60.2399 34.4872C57.7942 34.5016 55.6747 35.174 53.8982 36.1746C53.2486 34.6922 52.5907 33.3874 52.4801 32.4172C52.3513 31.2854 52.2015 30.6098 52.3569 29.2602C52.5123 27.9106 53.1954 26.0007 53.1842 25.8582C53.1744 25.7158 53.0317 25.029 51.6205 25.0161C50.2094 25.0049 49.0026 25.3267 48.8598 25.7526C48.717 26.1784 48.4454 27.1374 48.2775 28.138C48.0297 29.6012 45.4608 34.8202 44.0006 37.5498C43.5233 36.4836 43.1173 35.5455 43.0333 34.8026C42.9045 33.6708 42.7547 32.9952 42.9101 31.6456C43.0655 30.296 43.7486 28.3861 43.7374 28.2436C43.7276 28.1011 43.5849 27.4143 42.1737 27.4015C40.7626 27.3903 39.5558 27.7121 39.413 28.138C39.2702 28.5638 39.119 29.5596 38.8307 30.5233C38.5409 31.4871 35.125 40.1913 34.2304 42.447C33.7741 43.5965 33.3779 44.5203 33.0979 45.151L33.0965 45.1478C33.0965 45.1478 33.0797 45.1894 33.0489 45.2615C32.8095 45.7978 32.6667 46.0956 32.6667 46.0956C32.6667 46.0956 32.6681 46.1004 32.6709 46.1068C32.4805 46.5006 32.2775 46.8672 32.1767 46.8672C32.1067 46.8672 31.9653 45.817 32.2075 44.3778C32.7157 41.3584 33.9365 36.6485 33.9253 36.4868C33.9197 36.4035 34.1521 35.5839 33.1273 35.1532C32.1319 34.737 31.7763 35.4318 31.6854 35.4334C31.5972 35.435 31.5314 35.6783 31.5314 35.6783C31.5314 35.6783 32.6415 30.3825 29.4146 30.3825C27.3987 30.3825 24.6045 32.9055 23.2269 35.1916C22.3589 35.7328 20.4998 36.8934 18.5273 38.1326C17.7699 38.608 16.9972 39.0947 16.2636 39.5574C16.2132 39.4949 16.1642 39.4309 16.1124 39.3685C12.201 34.5961 4.97168 31.2213 5.27827 24.8064C5.39026 22.4739 6.09863 16.3327 19.1713 8.8836C29.8794 2.78086 38.4527 4.46023 39.9338 8.18239C42.0505 13.4991 35.3518 23.3816 24.2321 24.8064C19.9944 25.3491 17.7643 23.4713 17.2086 22.7716C16.6248 22.0352 16.538 22.0016 16.3196 22.1409C15.964 22.3666 16.1894 23.0166 16.3196 23.404C16.6514 24.3918 18.0135 26.1448 20.3374 27.0157C22.3813 27.7826 27.3553 28.2036 33.3723 25.5429C40.1102 22.5619 45.3712 14.2707 43.827 7.3403C42.2549 0.291417 32.0353 -2.02513 22.3631 1.90355C16.6066 4.24251 10.3755 7.91343 5.89424 12.705C0.566066 18.4043 -0.282299 23.364 0.0676865 25.4356C1.31223 32.7999 10.1865 37.5946 13.7409 41.1487C13.5659 41.2592 13.4007 41.3632 13.2509 41.4577C11.4688 42.4663 4.70429 46.515 3.01176 50.7927C1.09244 55.6451 3.31695 59.1271 4.79109 59.5962C9.35489 61.0482 14.0391 58.4355 16.5562 54.1418C19.0733 49.8497 18.7653 44.2609 17.6103 41.709C17.5963 41.677 17.5795 41.6466 17.5655 41.6146C18.0261 41.3024 18.4951 40.987 18.9599 40.6748C19.8671 40.0665 20.7574 39.4981 21.5302 39.0163C21.0976 40.3707 20.7812 41.994 20.616 44.3394C20.4228 47.0945 21.4098 50.655 22.7019 52.0558C23.2703 52.6722 23.9549 52.6866 24.3889 52.6866C25.8924 52.6866 26.5784 51.257 27.3329 49.5648C28.2597 47.49 29.0815 45.0758 29.0815 45.0758C29.0815 45.0758 28.0497 51.5996 30.8608 51.5996C31.8841 51.5996 32.9145 50.0803 33.3737 49.307C33.3751 49.315 33.3751 49.3198 33.3751 49.3198C33.3751 49.3198 33.4017 49.2702 33.4535 49.1677C33.5599 48.982 33.6201 48.8636 33.6201 48.8636C33.6201 48.8636 33.6229 48.8508 33.6257 48.83C34.0373 48.0135 34.95 46.15 36.3192 43.0762C38.0873 39.1059 39.784 34.1334 39.784 34.1334C39.784 34.1334 39.9422 35.3501 40.4588 37.3593C40.7626 38.5424 41.4093 39.8503 41.9189 41.1039C41.5087 41.7555 41.2567 42.1285 41.2567 42.1285C41.2567 42.1285 41.2595 42.1349 41.2637 42.1477C40.9362 42.6456 40.568 43.1819 40.183 43.707C38.7873 45.6089 37.1241 47.7797 36.9015 48.4073C36.6397 49.1453 36.7013 49.6897 37.2081 50.1251C37.5777 50.4437 38.2371 50.4933 38.9258 50.4405C40.1802 50.3444 41.0636 49.9874 41.4989 49.7713C42.1779 49.4975 42.9689 49.0653 43.7108 48.4409C45.08 47.2899 45.906 45.6425 45.8276 43.4604C45.7842 42.2581 45.4482 41.0671 45.024 39.9416C45.1486 39.7367 45.2732 39.5318 45.3978 39.322C47.5565 35.7119 49.2308 31.7465 49.2308 31.7465C49.2308 31.7465 49.389 32.9632 49.9056 34.9723C50.1674 35.9905 50.6839 37.1 51.1473 38.1886C49.1174 40.0745 47.8589 42.2661 47.4207 43.7038C46.6129 46.3629 47.2457 47.5684 48.4328 47.8422C48.9704 47.9671 49.7306 47.6853 50.3018 47.4083C51.0129 47.1394 51.8669 46.6895 52.6649 46.0187C54.034 44.8677 55.3514 43.2555 55.2716 41.0735C55.2352 40.0809 55 39.0947 54.6808 38.147C56.4013 37.3273 58.63 36.871 61.4677 37.2504C67.556 38.0637 68.7502 42.4102 68.522 44.2289C68.2938 46.0491 67.0171 47.0481 66.5901 47.3507C66.1631 47.6533 66.0329 47.7573 66.0693 47.9815C66.1211 48.308 66.3185 48.2952 66.6825 48.2248C67.1837 48.1287 69.8785 46.7455 69.9947 43.3868C70.1403 39.1315 66.5677 34.4488 60.2399 34.4872ZM13.3167 52.5777C11.3008 55.0928 8.48273 56.0437 7.27458 55.2433C5.96984 54.3788 6.48642 50.6742 8.96151 48.0055C10.4692 46.3789 12.4166 44.8805 13.7087 43.9567C14.0027 43.755 14.4339 43.4572 14.9589 43.097C15.0457 43.041 15.0947 43.009 15.0947 43.009L15.0933 43.0058C15.194 42.9369 15.299 42.8649 15.4054 42.7912C16.3056 46.5919 15.4334 49.9378 13.3167 52.5777ZM28.0063 41.1567C27.3035 43.1146 25.8336 48.1239 24.939 47.855C24.1705 47.6245 23.7029 43.8158 24.785 40.0697C25.3296 38.1838 26.493 35.9297 27.1775 35.054C28.2779 33.6468 29.4902 33.1857 29.7842 33.7572C30.1608 34.484 28.4473 39.9288 28.0063 41.1567ZM40.1438 47.7797C39.8456 47.9574 39.5726 48.0695 39.4466 47.9831C39.3528 47.919 39.5698 47.6853 39.5698 47.6853C39.5698 47.6853 41.0874 45.817 41.6865 44.9669C42.0337 44.4722 42.4383 43.8847 42.8765 43.2283C42.8807 43.2939 42.8821 43.3596 42.8821 43.4236C42.8765 45.6617 40.9866 47.1714 40.1438 47.7797ZM49.494 45.3415C49.2714 45.1606 49.3092 44.5763 50.0386 42.7576C50.3256 42.0436 50.9793 40.8397 52.1175 39.6903C52.2491 40.1625 52.3303 40.6156 52.3275 41.0382C52.3121 43.8543 50.5552 44.9061 49.494 45.3415Z" fill="#E7EAE6"/>
</svg>
