<svg width="26" height="34" viewBox="0 0 26 34" fill="none" xmlns="http://www.w3.org/2000/svg">
<path d="M0 13.8372V20.1628H2.22857V13.8372H0ZM26 20.1628V13.8372H23.7714V20.1628H26ZM11.8857 5.93023V10.9553V15.9804H14.1143V5.93023H11.8857ZM26 13.8372C26 10.1674 24.6304 6.6478 22.1924 4.05282C19.7544 1.45784 16.4478 0 13 0V2.37209C15.8568 2.37209 18.5965 3.58002 20.6165 5.73015C22.6366 7.88027 23.7714 10.7965 23.7714 13.8372H26ZM13 34C14.7072 34 16.3977 33.6421 17.9749 32.9467C19.5521 32.2513 20.9852 31.2321 22.1924 29.9472C23.3996 28.6623 24.3571 27.1369 25.0104 25.4581C25.6637 23.7793 26 21.9799 26 20.1628H23.7714C23.7714 23.2035 22.6366 26.1197 20.6165 28.2699C18.5965 30.42 15.8568 31.6279 13 31.6279V34ZM0 20.1628C0 23.8326 1.36964 27.3522 3.80761 29.9472C6.24558 32.5422 9.55219 34 13 34V31.6279C10.1432 31.6279 7.40348 30.42 5.38345 28.2699C3.36342 26.1197 2.22857 23.2035 2.22857 20.1628H0ZM2.22857 13.8372C2.22857 10.7965 3.36342 7.88027 5.38345 5.73015C7.40348 3.58002 10.1432 2.37209 13 2.37209V0C9.55219 0 6.24558 1.45784 3.80761 4.05282C1.36964 6.6478 0 10.1674 0 13.8372H2.22857Z" fill="#E7EAE6"/>
</svg>
